<mxfile host="Electron" agent="Mozilla/5.0 (Windows NT 10.0; Win64; x64) AppleWebKit/537.36 (KHTML, like Gecko) draw.io/24.7.17 Chrome/128.0.6613.36 Electron/32.0.1 Safari/537.36" version="24.7.17">
  <diagram id="R2lEEEUBdFMjLlhIrx00" name="Page-1">
    <mxGraphModel dx="2236" dy="1091" grid="1" gridSize="10" guides="1" tooltips="1" connect="1" arrows="1" fold="1" page="1" pageScale="1" pageWidth="1100" pageHeight="850" math="0" shadow="0" extFonts="Permanent Marker^https://fonts.googleapis.com/css?family=Permanent+Marker">
      <root>
        <mxCell id="0" />
        <mxCell id="1" parent="0" />
        <mxCell id="B71xLVVzWM60uTZ0UDc2-8" style="rounded=0;orthogonalLoop=1;jettySize=auto;html=1;exitX=0.5;exitY=0;exitDx=0;exitDy=0;entryX=0;entryY=0.5;entryDx=0;entryDy=0;fontFamily=Architects Daughter;fontSource=https%3A%2F%2Ffonts.googleapis.com%2Fcss%3Ffamily%3DArchitects%2BDaughter;fontSize=16;endArrow=open;sourcePerimeterSpacing=8;targetPerimeterSpacing=8;edgeStyle=orthogonalEdgeStyle;" edge="1" parent="1" source="B71xLVVzWM60uTZ0UDc2-2" target="B71xLVVzWM60uTZ0UDc2-7">
          <mxGeometry relative="1" as="geometry" />
        </mxCell>
        <mxCell id="B71xLVVzWM60uTZ0UDc2-10" value="(1:1)" style="edgeLabel;html=1;align=center;verticalAlign=middle;resizable=0;points=[];fontSize=16;fontFamily=Architects Daughter;fontSource=https%3A%2F%2Ffonts.googleapis.com%2Fcss%3Ffamily%3DArchitects%2BDaughter;" vertex="1" connectable="0" parent="B71xLVVzWM60uTZ0UDc2-8">
          <mxGeometry x="0.0196" y="-1" relative="1" as="geometry">
            <mxPoint as="offset" />
          </mxGeometry>
        </mxCell>
        <mxCell id="B71xLVVzWM60uTZ0UDc2-36" style="edgeStyle=orthogonalEdgeStyle;rounded=0;orthogonalLoop=1;jettySize=auto;html=1;exitX=0.5;exitY=1;exitDx=0;exitDy=0;entryX=0;entryY=0.5;entryDx=0;entryDy=0;fontFamily=Architects Daughter;fontSource=https%3A%2F%2Ffonts.googleapis.com%2Fcss%3Ffamily%3DArchitects%2BDaughter;fontSize=16;endArrow=open;sourcePerimeterSpacing=8;targetPerimeterSpacing=8;" edge="1" parent="1" source="B71xLVVzWM60uTZ0UDc2-2" target="B71xLVVzWM60uTZ0UDc2-35">
          <mxGeometry relative="1" as="geometry" />
        </mxCell>
        <mxCell id="B71xLVVzWM60uTZ0UDc2-38" style="edgeStyle=orthogonalEdgeStyle;rounded=0;orthogonalLoop=1;jettySize=auto;html=1;exitX=0.5;exitY=1;exitDx=0;exitDy=0;entryX=0;entryY=0.5;entryDx=0;entryDy=0;fontFamily=Architects Daughter;fontSource=https%3A%2F%2Ffonts.googleapis.com%2Fcss%3Ffamily%3DArchitects%2BDaughter;fontSize=16;endArrow=open;sourcePerimeterSpacing=8;targetPerimeterSpacing=8;" edge="1" parent="1" source="B71xLVVzWM60uTZ0UDc2-2" target="B71xLVVzWM60uTZ0UDc2-32">
          <mxGeometry relative="1" as="geometry" />
        </mxCell>
        <mxCell id="B71xLVVzWM60uTZ0UDc2-100" style="edgeStyle=orthogonalEdgeStyle;rounded=0;orthogonalLoop=1;jettySize=auto;html=1;entryX=0;entryY=0.5;entryDx=0;entryDy=0;fontFamily=Architects Daughter;fontSource=https%3A%2F%2Ffonts.googleapis.com%2Fcss%3Ffamily%3DArchitects%2BDaughter;fontSize=16;endArrow=open;sourcePerimeterSpacing=8;targetPerimeterSpacing=8;" edge="1" parent="1" source="B71xLVVzWM60uTZ0UDc2-2" target="B71xLVVzWM60uTZ0UDc2-95">
          <mxGeometry relative="1" as="geometry" />
        </mxCell>
        <mxCell id="B71xLVVzWM60uTZ0UDc2-2" value="Cliente" style="rounded=0;whiteSpace=wrap;html=1;fontFamily=Architects Daughter;fontSource=https%3A%2F%2Ffonts.googleapis.com%2Fcss%3Ffamily%3DArchitects%2BDaughter;" vertex="1" parent="1">
          <mxGeometry x="15" y="95" width="130" height="50" as="geometry" />
        </mxCell>
        <mxCell id="B71xLVVzWM60uTZ0UDc2-13" style="edgeStyle=orthogonalEdgeStyle;rounded=0;orthogonalLoop=1;jettySize=auto;html=1;exitX=0.5;exitY=1;exitDx=0;exitDy=0;entryX=0.5;entryY=0;entryDx=0;entryDy=0;fontFamily=Architects Daughter;fontSource=https%3A%2F%2Ffonts.googleapis.com%2Fcss%3Ffamily%3DArchitects%2BDaughter;fontSize=16;endArrow=open;sourcePerimeterSpacing=8;targetPerimeterSpacing=8;" edge="1" parent="1" source="B71xLVVzWM60uTZ0UDc2-3" target="B71xLVVzWM60uTZ0UDc2-29">
          <mxGeometry relative="1" as="geometry">
            <mxPoint x="570" y="290" as="targetPoint" />
          </mxGeometry>
        </mxCell>
        <mxCell id="B71xLVVzWM60uTZ0UDc2-15" value="(1:N)&lt;div&gt;(1:N)&lt;/div&gt;" style="edgeLabel;html=1;align=center;verticalAlign=middle;resizable=0;points=[];fontSize=16;fontFamily=Architects Daughter;fontSource=https%3A%2F%2Ffonts.googleapis.com%2Fcss%3Ffamily%3DArchitects%2BDaughter;" vertex="1" connectable="0" parent="B71xLVVzWM60uTZ0UDc2-13">
          <mxGeometry x="-0.1" y="1" relative="1" as="geometry">
            <mxPoint as="offset" />
          </mxGeometry>
        </mxCell>
        <mxCell id="B71xLVVzWM60uTZ0UDc2-65" style="edgeStyle=orthogonalEdgeStyle;rounded=0;orthogonalLoop=1;jettySize=auto;html=1;exitX=1;exitY=0.5;exitDx=0;exitDy=0;entryX=0;entryY=0.5;entryDx=0;entryDy=0;fontFamily=Architects Daughter;fontSource=https%3A%2F%2Ffonts.googleapis.com%2Fcss%3Ffamily%3DArchitects%2BDaughter;fontSize=16;endArrow=open;sourcePerimeterSpacing=8;targetPerimeterSpacing=8;" edge="1" parent="1" source="B71xLVVzWM60uTZ0UDc2-3" target="B71xLVVzWM60uTZ0UDc2-63">
          <mxGeometry relative="1" as="geometry">
            <Array as="points">
              <mxPoint x="750" y="40" />
              <mxPoint x="750" y="40" />
            </Array>
          </mxGeometry>
        </mxCell>
        <mxCell id="B71xLVVzWM60uTZ0UDc2-66" style="edgeStyle=orthogonalEdgeStyle;rounded=0;orthogonalLoop=1;jettySize=auto;html=1;exitX=1;exitY=0.5;exitDx=0;exitDy=0;entryX=0;entryY=0.5;entryDx=0;entryDy=0;fontFamily=Architects Daughter;fontSource=https%3A%2F%2Ffonts.googleapis.com%2Fcss%3Ffamily%3DArchitects%2BDaughter;fontSize=16;endArrow=open;sourcePerimeterSpacing=8;targetPerimeterSpacing=8;" edge="1" parent="1" source="B71xLVVzWM60uTZ0UDc2-3" target="B71xLVVzWM60uTZ0UDc2-64">
          <mxGeometry relative="1" as="geometry">
            <mxPoint x="700.0000000000001" y="50" as="sourcePoint" />
            <mxPoint x="745.0000000000015" y="85" as="targetPoint" />
            <Array as="points">
              <mxPoint x="730" y="40" />
              <mxPoint x="730" y="75" />
            </Array>
          </mxGeometry>
        </mxCell>
        <mxCell id="B71xLVVzWM60uTZ0UDc2-101" style="edgeStyle=orthogonalEdgeStyle;rounded=0;orthogonalLoop=1;jettySize=auto;html=1;exitX=1;exitY=0.5;exitDx=0;exitDy=0;entryX=0;entryY=0.5;entryDx=0;entryDy=0;fontFamily=Architects Daughter;fontSource=https%3A%2F%2Ffonts.googleapis.com%2Fcss%3Ffamily%3DArchitects%2BDaughter;fontSize=16;endArrow=open;sourcePerimeterSpacing=8;targetPerimeterSpacing=8;" edge="1" parent="1" source="B71xLVVzWM60uTZ0UDc2-3" target="B71xLVVzWM60uTZ0UDc2-96">
          <mxGeometry relative="1" as="geometry">
            <Array as="points">
              <mxPoint x="730" y="40" />
              <mxPoint x="730" y="160" />
            </Array>
          </mxGeometry>
        </mxCell>
        <mxCell id="B71xLVVzWM60uTZ0UDc2-107" style="edgeStyle=orthogonalEdgeStyle;rounded=0;orthogonalLoop=1;jettySize=auto;html=1;exitX=1;exitY=0.5;exitDx=0;exitDy=0;entryX=0;entryY=0.5;entryDx=0;entryDy=0;fontFamily=Architects Daughter;fontSource=https%3A%2F%2Ffonts.googleapis.com%2Fcss%3Ffamily%3DArchitects%2BDaughter;fontSize=16;endArrow=open;sourcePerimeterSpacing=8;targetPerimeterSpacing=8;" edge="1" parent="1" source="B71xLVVzWM60uTZ0UDc2-3" target="B71xLVVzWM60uTZ0UDc2-106">
          <mxGeometry relative="1" as="geometry">
            <Array as="points">
              <mxPoint x="730" y="40" />
              <mxPoint x="730" y="115" />
            </Array>
          </mxGeometry>
        </mxCell>
        <mxCell id="B71xLVVzWM60uTZ0UDc2-3" value="Pedido" style="shape=ext;margin=3;double=1;whiteSpace=wrap;html=1;align=center;fontFamily=Architects Daughter;fontSource=https%3A%2F%2Ffonts.googleapis.com%2Fcss%3Ffamily%3DArchitects%2BDaughter;" vertex="1" parent="1">
          <mxGeometry x="565" y="10" width="140" height="60" as="geometry" />
        </mxCell>
        <mxCell id="B71xLVVzWM60uTZ0UDc2-90" style="edgeStyle=orthogonalEdgeStyle;rounded=0;orthogonalLoop=1;jettySize=auto;html=1;entryX=1;entryY=0.5;entryDx=0;entryDy=0;fontFamily=Architects Daughter;fontSource=https%3A%2F%2Ffonts.googleapis.com%2Fcss%3Ffamily%3DArchitects%2BDaughter;fontSize=16;endArrow=open;sourcePerimeterSpacing=8;targetPerimeterSpacing=8;exitX=0;exitY=0.5;exitDx=0;exitDy=0;" edge="1" parent="1" source="B71xLVVzWM60uTZ0UDc2-4" target="B71xLVVzWM60uTZ0UDc2-86">
          <mxGeometry relative="1" as="geometry">
            <Array as="points">
              <mxPoint x="290" y="690" />
              <mxPoint x="290" y="715" />
            </Array>
          </mxGeometry>
        </mxCell>
        <mxCell id="B71xLVVzWM60uTZ0UDc2-91" style="edgeStyle=orthogonalEdgeStyle;rounded=0;orthogonalLoop=1;jettySize=auto;html=1;entryX=1;entryY=0.5;entryDx=0;entryDy=0;fontFamily=Architects Daughter;fontSource=https%3A%2F%2Ffonts.googleapis.com%2Fcss%3Ffamily%3DArchitects%2BDaughter;fontSize=16;endArrow=open;sourcePerimeterSpacing=8;targetPerimeterSpacing=8;exitX=0;exitY=0.5;exitDx=0;exitDy=0;" edge="1" parent="1" source="B71xLVVzWM60uTZ0UDc2-4" target="B71xLVVzWM60uTZ0UDc2-85">
          <mxGeometry relative="1" as="geometry">
            <Array as="points">
              <mxPoint x="290" y="690" />
              <mxPoint x="290" y="675" />
            </Array>
          </mxGeometry>
        </mxCell>
        <mxCell id="B71xLVVzWM60uTZ0UDc2-92" style="edgeStyle=orthogonalEdgeStyle;rounded=0;orthogonalLoop=1;jettySize=auto;html=1;entryX=1;entryY=0.5;entryDx=0;entryDy=0;fontFamily=Architects Daughter;fontSource=https%3A%2F%2Ffonts.googleapis.com%2Fcss%3Ffamily%3DArchitects%2BDaughter;fontSize=16;endArrow=open;sourcePerimeterSpacing=8;targetPerimeterSpacing=8;exitX=0;exitY=0.5;exitDx=0;exitDy=0;" edge="1" parent="1" source="B71xLVVzWM60uTZ0UDc2-4" target="B71xLVVzWM60uTZ0UDc2-84">
          <mxGeometry relative="1" as="geometry">
            <Array as="points">
              <mxPoint x="290" y="690" />
              <mxPoint x="290" y="635" />
            </Array>
          </mxGeometry>
        </mxCell>
        <mxCell id="B71xLVVzWM60uTZ0UDc2-105" style="edgeStyle=orthogonalEdgeStyle;rounded=0;orthogonalLoop=1;jettySize=auto;html=1;exitX=0;exitY=0.5;exitDx=0;exitDy=0;entryX=1;entryY=0.5;entryDx=0;entryDy=0;fontFamily=Architects Daughter;fontSource=https%3A%2F%2Ffonts.googleapis.com%2Fcss%3Ffamily%3DArchitects%2BDaughter;fontSize=16;endArrow=open;sourcePerimeterSpacing=8;targetPerimeterSpacing=8;" edge="1" parent="1" source="B71xLVVzWM60uTZ0UDc2-4" target="B71xLVVzWM60uTZ0UDc2-98">
          <mxGeometry relative="1" as="geometry">
            <Array as="points">
              <mxPoint x="290" y="690" />
              <mxPoint x="290" y="770" />
            </Array>
          </mxGeometry>
        </mxCell>
        <mxCell id="B71xLVVzWM60uTZ0UDc2-4" value="Editorial" style="rounded=0;whiteSpace=wrap;html=1;fontFamily=Architects Daughter;fontSource=https%3A%2F%2Ffonts.googleapis.com%2Fcss%3Ffamily%3DArchitects%2BDaughter;" vertex="1" parent="1">
          <mxGeometry x="355" y="660" width="130" height="60" as="geometry" />
        </mxCell>
        <mxCell id="B71xLVVzWM60uTZ0UDc2-77" style="edgeStyle=orthogonalEdgeStyle;rounded=0;orthogonalLoop=1;jettySize=auto;html=1;entryX=0;entryY=0.5;entryDx=0;entryDy=0;fontFamily=Architects Daughter;fontSource=https%3A%2F%2Ffonts.googleapis.com%2Fcss%3Ffamily%3DArchitects%2BDaughter;fontSize=16;endArrow=open;sourcePerimeterSpacing=8;targetPerimeterSpacing=8;exitX=1;exitY=0.5;exitDx=0;exitDy=0;" edge="1" parent="1" target="B71xLVVzWM60uTZ0UDc2-75">
          <mxGeometry relative="1" as="geometry">
            <mxPoint x="719.38" y="650" as="sourcePoint" />
            <Array as="points">
              <mxPoint x="752.5" y="650" />
              <mxPoint x="752.5" y="650" />
            </Array>
          </mxGeometry>
        </mxCell>
        <mxCell id="B71xLVVzWM60uTZ0UDc2-80" style="edgeStyle=orthogonalEdgeStyle;rounded=0;orthogonalLoop=1;jettySize=auto;html=1;exitX=1;exitY=0.5;exitDx=0;exitDy=0;entryX=0;entryY=0.5;entryDx=0;entryDy=0;fontFamily=Architects Daughter;fontSource=https%3A%2F%2Ffonts.googleapis.com%2Fcss%3Ffamily%3DArchitects%2BDaughter;fontSize=16;endArrow=open;sourcePerimeterSpacing=8;targetPerimeterSpacing=8;" edge="1" parent="1" target="B71xLVVzWM60uTZ0UDc2-72">
          <mxGeometry relative="1" as="geometry">
            <mxPoint x="719.38" y="650" as="sourcePoint" />
            <Array as="points">
              <mxPoint x="739.38" y="650" />
              <mxPoint x="739.38" y="528" />
            </Array>
          </mxGeometry>
        </mxCell>
        <mxCell id="B71xLVVzWM60uTZ0UDc2-81" style="edgeStyle=orthogonalEdgeStyle;rounded=0;orthogonalLoop=1;jettySize=auto;html=1;entryX=0;entryY=0.5;entryDx=0;entryDy=0;fontFamily=Architects Daughter;fontSource=https%3A%2F%2Ffonts.googleapis.com%2Fcss%3Ffamily%3DArchitects%2BDaughter;fontSize=16;endArrow=open;sourcePerimeterSpacing=8;targetPerimeterSpacing=8;exitX=1;exitY=0.5;exitDx=0;exitDy=0;" edge="1" parent="1" target="B71xLVVzWM60uTZ0UDc2-73">
          <mxGeometry relative="1" as="geometry">
            <mxPoint x="719.38" y="650" as="sourcePoint" />
            <Array as="points">
              <mxPoint x="739.38" y="650" />
              <mxPoint x="739.38" y="570" />
            </Array>
          </mxGeometry>
        </mxCell>
        <mxCell id="B71xLVVzWM60uTZ0UDc2-103" style="edgeStyle=orthogonalEdgeStyle;rounded=0;orthogonalLoop=1;jettySize=auto;html=1;entryX=0;entryY=0.5;entryDx=0;entryDy=0;fontFamily=Architects Daughter;fontSource=https%3A%2F%2Ffonts.googleapis.com%2Fcss%3Ffamily%3DArchitects%2BDaughter;fontSize=16;endArrow=open;sourcePerimeterSpacing=8;targetPerimeterSpacing=8;exitX=1;exitY=0.5;exitDx=0;exitDy=0;" edge="1" parent="1" target="B71xLVVzWM60uTZ0UDc2-99">
          <mxGeometry relative="1" as="geometry">
            <mxPoint x="719.38" y="650" as="sourcePoint" />
            <Array as="points">
              <mxPoint x="739.38" y="650" />
              <mxPoint x="739.38" y="400" />
            </Array>
          </mxGeometry>
        </mxCell>
        <mxCell id="B71xLVVzWM60uTZ0UDc2-115" style="edgeStyle=orthogonalEdgeStyle;rounded=0;orthogonalLoop=1;jettySize=auto;html=1;fontFamily=Architects Daughter;fontSource=https%3A%2F%2Ffonts.googleapis.com%2Fcss%3Ffamily%3DArchitects%2BDaughter;fontSize=16;endArrow=open;sourcePerimeterSpacing=8;targetPerimeterSpacing=8;entryX=0;entryY=0.5;entryDx=0;entryDy=0;" edge="1" parent="1" target="B71xLVVzWM60uTZ0UDc2-113">
          <mxGeometry relative="1" as="geometry">
            <mxPoint x="700" y="640" as="sourcePoint" />
            <mxPoint x="795.6299999999983" y="350" as="targetPoint" />
            <Array as="points">
              <mxPoint x="739.5" y="650" />
              <mxPoint x="739.5" y="350" />
            </Array>
          </mxGeometry>
        </mxCell>
        <mxCell id="B71xLVVzWM60uTZ0UDc2-5" value="Libro" style="shape=ext;margin=3;double=1;whiteSpace=wrap;html=1;align=center;fontFamily=Architects Daughter;fontSource=https%3A%2F%2Ffonts.googleapis.com%2Fcss%3Ffamily%3DArchitects%2BDaughter;" vertex="1" parent="1">
          <mxGeometry x="570" y="615" width="130" height="50" as="geometry" />
        </mxCell>
        <mxCell id="B71xLVVzWM60uTZ0UDc2-68" style="edgeStyle=orthogonalEdgeStyle;rounded=0;orthogonalLoop=1;jettySize=auto;html=1;exitX=1;exitY=0.5;exitDx=0;exitDy=0;entryX=0;entryY=0.5;entryDx=0;entryDy=0;fontFamily=Architects Daughter;fontSource=https%3A%2F%2Ffonts.googleapis.com%2Fcss%3Ffamily%3DArchitects%2BDaughter;fontSize=16;endArrow=open;sourcePerimeterSpacing=8;targetPerimeterSpacing=8;" edge="1" parent="1" source="B71xLVVzWM60uTZ0UDc2-6" target="B71xLVVzWM60uTZ0UDc2-67">
          <mxGeometry relative="1" as="geometry">
            <Array as="points">
              <mxPoint x="940" y="710" />
              <mxPoint x="940" y="800" />
            </Array>
          </mxGeometry>
        </mxCell>
        <mxCell id="B71xLVVzWM60uTZ0UDc2-104" style="edgeStyle=orthogonalEdgeStyle;rounded=0;orthogonalLoop=1;jettySize=auto;html=1;exitX=1;exitY=0.5;exitDx=0;exitDy=0;entryX=0;entryY=0.5;entryDx=0;entryDy=0;fontFamily=Architects Daughter;fontSource=https%3A%2F%2Ffonts.googleapis.com%2Fcss%3Ffamily%3DArchitects%2BDaughter;fontSize=16;endArrow=open;sourcePerimeterSpacing=8;targetPerimeterSpacing=8;" edge="1" parent="1" source="B71xLVVzWM60uTZ0UDc2-6" target="B71xLVVzWM60uTZ0UDc2-97">
          <mxGeometry relative="1" as="geometry">
            <mxPoint x="957.5" y="620" as="targetPoint" />
            <Array as="points">
              <mxPoint x="940" y="710" />
              <mxPoint x="940" y="750" />
            </Array>
          </mxGeometry>
        </mxCell>
        <mxCell id="B71xLVVzWM60uTZ0UDc2-118" style="edgeStyle=orthogonalEdgeStyle;rounded=0;orthogonalLoop=1;jettySize=auto;html=1;fontFamily=Architects Daughter;fontSource=https%3A%2F%2Ffonts.googleapis.com%2Fcss%3Ffamily%3DArchitects%2BDaughter;fontSize=16;endArrow=open;sourcePerimeterSpacing=8;targetPerimeterSpacing=8;exitX=1;exitY=0.5;exitDx=0;exitDy=0;entryX=0;entryY=0.5;entryDx=0;entryDy=0;" edge="1" parent="1" source="B71xLVVzWM60uTZ0UDc2-6" target="B71xLVVzWM60uTZ0UDc2-116">
          <mxGeometry relative="1" as="geometry">
            <Array as="points">
              <mxPoint x="940" y="710" />
              <mxPoint x="940" y="690" />
            </Array>
          </mxGeometry>
        </mxCell>
        <mxCell id="B71xLVVzWM60uTZ0UDc2-6" value="inventario" style="shape=ext;margin=3;double=1;whiteSpace=wrap;html=1;align=center;fontFamily=Architects Daughter;fontSource=https%3A%2F%2Ffonts.googleapis.com%2Fcss%3Ffamily%3DArchitects%2BDaughter;" vertex="1" parent="1">
          <mxGeometry x="762.5" y="685" width="140" height="50" as="geometry" />
        </mxCell>
        <mxCell id="B71xLVVzWM60uTZ0UDc2-9" style="edgeStyle=orthogonalEdgeStyle;rounded=0;orthogonalLoop=1;jettySize=auto;html=1;exitX=1;exitY=0.5;exitDx=0;exitDy=0;entryX=0;entryY=0.5;entryDx=0;entryDy=0;fontFamily=Architects Daughter;fontSource=https%3A%2F%2Ffonts.googleapis.com%2Fcss%3Ffamily%3DArchitects%2BDaughter;fontSize=16;endArrow=open;sourcePerimeterSpacing=8;targetPerimeterSpacing=8;" edge="1" parent="1" source="B71xLVVzWM60uTZ0UDc2-7" target="B71xLVVzWM60uTZ0UDc2-3">
          <mxGeometry relative="1" as="geometry" />
        </mxCell>
        <mxCell id="B71xLVVzWM60uTZ0UDc2-11" value="(0:N)" style="edgeLabel;html=1;align=center;verticalAlign=middle;resizable=0;points=[];fontSize=16;fontFamily=Architects Daughter;fontSource=https%3A%2F%2Ffonts.googleapis.com%2Fcss%3Ffamily%3DArchitects%2BDaughter;" vertex="1" connectable="0" parent="B71xLVVzWM60uTZ0UDc2-9">
          <mxGeometry x="-0.0263" relative="1" as="geometry">
            <mxPoint as="offset" />
          </mxGeometry>
        </mxCell>
        <mxCell id="B71xLVVzWM60uTZ0UDc2-7" value="Realiza compra" style="shape=rhombus;perimeter=rhombusPerimeter;whiteSpace=wrap;html=1;align=center;fontFamily=Architects Daughter;fontSource=https%3A%2F%2Ffonts.googleapis.com%2Fcss%3Ffamily%3DArchitects%2BDaughter;" vertex="1" parent="1">
          <mxGeometry x="317.5" y="10" width="75" height="60" as="geometry" />
        </mxCell>
        <mxCell id="B71xLVVzWM60uTZ0UDc2-14" style="edgeStyle=orthogonalEdgeStyle;rounded=0;orthogonalLoop=1;jettySize=auto;html=1;exitX=0.5;exitY=1;exitDx=0;exitDy=0;entryX=0.5;entryY=0;entryDx=0;entryDy=0;fontFamily=Architects Daughter;fontSource=https%3A%2F%2Ffonts.googleapis.com%2Fcss%3Ffamily%3DArchitects%2BDaughter;fontSize=16;endArrow=open;sourcePerimeterSpacing=8;targetPerimeterSpacing=8;" edge="1" parent="1" source="B71xLVVzWM60uTZ0UDc2-29" target="B71xLVVzWM60uTZ0UDc2-5">
          <mxGeometry relative="1" as="geometry">
            <mxPoint x="570" y="350" as="sourcePoint" />
          </mxGeometry>
        </mxCell>
        <mxCell id="B71xLVVzWM60uTZ0UDc2-16" value="(1:N)&lt;div&gt;(1:N)&lt;/div&gt;" style="edgeLabel;html=1;align=center;verticalAlign=middle;resizable=0;points=[];fontSize=16;fontFamily=Architects Daughter;fontSource=https%3A%2F%2Ffonts.googleapis.com%2Fcss%3Ffamily%3DArchitects%2BDaughter;" vertex="1" connectable="0" parent="B71xLVVzWM60uTZ0UDc2-14">
          <mxGeometry x="-0.2" relative="1" as="geometry">
            <mxPoint as="offset" />
          </mxGeometry>
        </mxCell>
        <mxCell id="B71xLVVzWM60uTZ0UDc2-22" style="edgeStyle=orthogonalEdgeStyle;rounded=0;orthogonalLoop=1;jettySize=auto;html=1;exitX=0.5;exitY=1;exitDx=0;exitDy=0;fontFamily=Architects Daughter;fontSource=https%3A%2F%2Ffonts.googleapis.com%2Fcss%3Ffamily%3DArchitects%2BDaughter;fontSize=16;endArrow=open;sourcePerimeterSpacing=8;targetPerimeterSpacing=8;entryX=0.5;entryY=0;entryDx=0;entryDy=0;" edge="1" parent="1" source="B71xLVVzWM60uTZ0UDc2-17" target="B71xLVVzWM60uTZ0UDc2-4">
          <mxGeometry relative="1" as="geometry">
            <mxPoint x="235" y="615" as="targetPoint" />
          </mxGeometry>
        </mxCell>
        <mxCell id="B71xLVVzWM60uTZ0UDc2-23" value="(1:1)" style="edgeLabel;html=1;align=center;verticalAlign=middle;resizable=0;points=[];fontSize=16;fontFamily=Architects Daughter;fontSource=https%3A%2F%2Ffonts.googleapis.com%2Fcss%3Ffamily%3DArchitects%2BDaughter;" vertex="1" connectable="0" parent="B71xLVVzWM60uTZ0UDc2-22">
          <mxGeometry x="0.0269" relative="1" as="geometry">
            <mxPoint as="offset" />
          </mxGeometry>
        </mxCell>
        <mxCell id="B71xLVVzWM60uTZ0UDc2-17" value="Pertenece" style="shape=rhombus;perimeter=rhombusPerimeter;whiteSpace=wrap;html=1;align=center;fontFamily=Architects Daughter;fontSource=https%3A%2F%2Ffonts.googleapis.com%2Fcss%3Ffamily%3DArchitects%2BDaughter;" vertex="1" parent="1">
          <mxGeometry x="380" y="475" width="80" height="60" as="geometry" />
        </mxCell>
        <mxCell id="B71xLVVzWM60uTZ0UDc2-18" style="edgeStyle=orthogonalEdgeStyle;rounded=0;orthogonalLoop=1;jettySize=auto;html=1;exitX=0;exitY=0.5;exitDx=0;exitDy=0;entryX=1;entryY=0.5;entryDx=0;entryDy=0;fontFamily=Architects Daughter;fontSource=https%3A%2F%2Ffonts.googleapis.com%2Fcss%3Ffamily%3DArchitects%2BDaughter;fontSize=16;endArrow=open;sourcePerimeterSpacing=8;targetPerimeterSpacing=8;" edge="1" parent="1" source="B71xLVVzWM60uTZ0UDc2-5" target="B71xLVVzWM60uTZ0UDc2-17">
          <mxGeometry relative="1" as="geometry">
            <mxPoint x="611.32" y="550" as="sourcePoint" />
            <mxPoint x="480.00000000000006" y="548.02" as="targetPoint" />
          </mxGeometry>
        </mxCell>
        <mxCell id="B71xLVVzWM60uTZ0UDc2-19" value="(1:N)" style="edgeLabel;html=1;align=center;verticalAlign=middle;resizable=0;points=[];fontSize=16;fontFamily=Architects Daughter;fontSource=https%3A%2F%2Ffonts.googleapis.com%2Fcss%3Ffamily%3DArchitects%2BDaughter;" vertex="1" connectable="0" parent="B71xLVVzWM60uTZ0UDc2-18">
          <mxGeometry x="-0.0853" y="-1" relative="1" as="geometry">
            <mxPoint y="-1" as="offset" />
          </mxGeometry>
        </mxCell>
        <mxCell id="B71xLVVzWM60uTZ0UDc2-26" style="edgeStyle=orthogonalEdgeStyle;rounded=0;orthogonalLoop=1;jettySize=auto;html=1;exitX=0.5;exitY=0;exitDx=0;exitDy=0;entryX=0.5;entryY=1;entryDx=0;entryDy=0;fontFamily=Architects Daughter;fontSource=https%3A%2F%2Ffonts.googleapis.com%2Fcss%3Ffamily%3DArchitects%2BDaughter;fontSize=16;endArrow=open;sourcePerimeterSpacing=8;targetPerimeterSpacing=8;" edge="1" parent="1" source="B71xLVVzWM60uTZ0UDc2-24" target="B71xLVVzWM60uTZ0UDc2-6">
          <mxGeometry relative="1" as="geometry" />
        </mxCell>
        <mxCell id="B71xLVVzWM60uTZ0UDc2-28" value="(0:1)" style="edgeLabel;html=1;align=center;verticalAlign=middle;resizable=0;points=[];fontSize=16;fontFamily=Architects Daughter;fontSource=https%3A%2F%2Ffonts.googleapis.com%2Fcss%3Ffamily%3DArchitects%2BDaughter;" vertex="1" connectable="0" parent="B71xLVVzWM60uTZ0UDc2-26">
          <mxGeometry x="-0.007" y="2" relative="1" as="geometry">
            <mxPoint as="offset" />
          </mxGeometry>
        </mxCell>
        <mxCell id="B71xLVVzWM60uTZ0UDc2-24" value="Existe" style="shape=rhombus;perimeter=rhombusPerimeter;whiteSpace=wrap;html=1;align=center;fontFamily=Architects Daughter;fontSource=https%3A%2F%2Ffonts.googleapis.com%2Fcss%3Ffamily%3DArchitects%2BDaughter;" vertex="1" parent="1">
          <mxGeometry x="792.5" y="780" width="80" height="60" as="geometry" />
        </mxCell>
        <mxCell id="B71xLVVzWM60uTZ0UDc2-25" style="edgeStyle=orthogonalEdgeStyle;rounded=0;orthogonalLoop=1;jettySize=auto;html=1;exitX=0.5;exitY=1;exitDx=0;exitDy=0;entryX=0;entryY=0.5;entryDx=0;entryDy=0;fontFamily=Architects Daughter;fontSource=https%3A%2F%2Ffonts.googleapis.com%2Fcss%3Ffamily%3DArchitects%2BDaughter;fontSize=16;endArrow=open;sourcePerimeterSpacing=8;targetPerimeterSpacing=8;" edge="1" parent="1" source="B71xLVVzWM60uTZ0UDc2-5" target="B71xLVVzWM60uTZ0UDc2-24">
          <mxGeometry relative="1" as="geometry">
            <mxPoint x="763" y="713.5" as="targetPoint" />
          </mxGeometry>
        </mxCell>
        <mxCell id="B71xLVVzWM60uTZ0UDc2-27" value="(1:N)" style="edgeLabel;html=1;align=center;verticalAlign=middle;resizable=0;points=[];fontSize=16;fontFamily=Architects Daughter;fontSource=https%3A%2F%2Ffonts.googleapis.com%2Fcss%3Ffamily%3DArchitects%2BDaughter;" vertex="1" connectable="0" parent="B71xLVVzWM60uTZ0UDc2-25">
          <mxGeometry x="-0.1348" y="-2" relative="1" as="geometry">
            <mxPoint y="1" as="offset" />
          </mxGeometry>
        </mxCell>
        <mxCell id="B71xLVVzWM60uTZ0UDc2-121" style="edgeStyle=orthogonalEdgeStyle;rounded=0;orthogonalLoop=1;jettySize=auto;html=1;entryX=0;entryY=0.5;entryDx=0;entryDy=0;fontFamily=Architects Daughter;fontSource=https%3A%2F%2Ffonts.googleapis.com%2Fcss%3Ffamily%3DArchitects%2BDaughter;fontSize=16;endArrow=open;sourcePerimeterSpacing=8;targetPerimeterSpacing=8;exitX=1;exitY=0.5;exitDx=0;exitDy=0;" edge="1" parent="1" source="B71xLVVzWM60uTZ0UDc2-29" target="B71xLVVzWM60uTZ0UDc2-112">
          <mxGeometry relative="1" as="geometry" />
        </mxCell>
        <mxCell id="B71xLVVzWM60uTZ0UDc2-122" style="edgeStyle=orthogonalEdgeStyle;rounded=0;orthogonalLoop=1;jettySize=auto;html=1;entryX=0;entryY=0.5;entryDx=0;entryDy=0;fontFamily=Architects Daughter;fontSource=https%3A%2F%2Ffonts.googleapis.com%2Fcss%3Ffamily%3DArchitects%2BDaughter;fontSize=16;endArrow=open;sourcePerimeterSpacing=8;targetPerimeterSpacing=8;exitX=1;exitY=0.5;exitDx=0;exitDy=0;" edge="1" parent="1" source="B71xLVVzWM60uTZ0UDc2-29" target="B71xLVVzWM60uTZ0UDc2-119">
          <mxGeometry relative="1" as="geometry" />
        </mxCell>
        <mxCell id="B71xLVVzWM60uTZ0UDc2-123" style="edgeStyle=orthogonalEdgeStyle;rounded=0;orthogonalLoop=1;jettySize=auto;html=1;entryX=0;entryY=0.5;entryDx=0;entryDy=0;fontFamily=Architects Daughter;fontSource=https%3A%2F%2Ffonts.googleapis.com%2Fcss%3Ffamily%3DArchitects%2BDaughter;fontSize=16;endArrow=open;sourcePerimeterSpacing=8;targetPerimeterSpacing=8;" edge="1" parent="1" source="B71xLVVzWM60uTZ0UDc2-29" target="B71xLVVzWM60uTZ0UDc2-108">
          <mxGeometry relative="1" as="geometry" />
        </mxCell>
        <mxCell id="B71xLVVzWM60uTZ0UDc2-124" style="edgeStyle=orthogonalEdgeStyle;rounded=0;orthogonalLoop=1;jettySize=auto;html=1;entryX=0;entryY=0.5;entryDx=0;entryDy=0;fontFamily=Architects Daughter;fontSource=https%3A%2F%2Ffonts.googleapis.com%2Fcss%3Ffamily%3DArchitects%2BDaughter;fontSize=16;endArrow=open;sourcePerimeterSpacing=8;targetPerimeterSpacing=8;" edge="1" parent="1" source="B71xLVVzWM60uTZ0UDc2-29" target="B71xLVVzWM60uTZ0UDc2-109">
          <mxGeometry relative="1" as="geometry" />
        </mxCell>
        <mxCell id="B71xLVVzWM60uTZ0UDc2-29" value="Contiene" style="shape=associativeEntity;whiteSpace=wrap;html=1;align=center;fontFamily=Architects Daughter;fontSource=https%3A%2F%2Ffonts.googleapis.com%2Fcss%3Ffamily%3DArchitects%2BDaughter;" vertex="1" parent="1">
          <mxGeometry x="565" y="210" width="140" height="60" as="geometry" />
        </mxCell>
        <mxCell id="B71xLVVzWM60uTZ0UDc2-30" value="Items" style="text;strokeColor=none;fillColor=none;spacingLeft=4;spacingRight=4;overflow=hidden;rotatable=0;points=[[0,0.5],[1,0.5]];portConstraint=eastwest;fontSize=12;whiteSpace=wrap;html=1;fontFamily=Architects Daughter;fontSource=https%3A%2F%2Ffonts.googleapis.com%2Fcss%3Ffamily%3DArchitects%2BDaughter;" vertex="1" parent="1">
          <mxGeometry x="570" y="180" width="40" height="30" as="geometry" />
        </mxCell>
        <mxCell id="B71xLVVzWM60uTZ0UDc2-32" value="Nombre" style="ellipse;whiteSpace=wrap;html=1;align=center;fontFamily=Architects Daughter;fontSource=https%3A%2F%2Ffonts.googleapis.com%2Fcss%3Ffamily%3DArchitects%2BDaughter;" vertex="1" parent="1">
          <mxGeometry x="130" y="340" width="80" height="30" as="geometry" />
        </mxCell>
        <mxCell id="B71xLVVzWM60uTZ0UDc2-47" style="edgeStyle=orthogonalEdgeStyle;rounded=0;orthogonalLoop=1;jettySize=auto;html=1;entryX=0;entryY=0.5;entryDx=0;entryDy=0;fontFamily=Architects Daughter;fontSource=https%3A%2F%2Ffonts.googleapis.com%2Fcss%3Ffamily%3DArchitects%2BDaughter;fontSize=16;endArrow=open;sourcePerimeterSpacing=8;targetPerimeterSpacing=8;" edge="1" parent="1" target="B71xLVVzWM60uTZ0UDc2-43">
          <mxGeometry relative="1" as="geometry">
            <mxPoint x="205" y="395" as="sourcePoint" />
            <Array as="points">
              <mxPoint x="229" y="395" />
              <mxPoint x="229" y="465" />
            </Array>
          </mxGeometry>
        </mxCell>
        <mxCell id="B71xLVVzWM60uTZ0UDc2-48" style="rounded=0;orthogonalLoop=1;jettySize=auto;html=1;entryX=0;entryY=0.5;entryDx=0;entryDy=0;fontFamily=Architects Daughter;fontSource=https%3A%2F%2Ffonts.googleapis.com%2Fcss%3Ffamily%3DArchitects%2BDaughter;fontSize=16;endArrow=open;sourcePerimeterSpacing=8;targetPerimeterSpacing=8;exitX=1;exitY=0.5;exitDx=0;exitDy=0;edgeStyle=orthogonalEdgeStyle;" edge="1" parent="1" source="B71xLVVzWM60uTZ0UDc2-33" target="B71xLVVzWM60uTZ0UDc2-44">
          <mxGeometry relative="1" as="geometry" />
        </mxCell>
        <mxCell id="B71xLVVzWM60uTZ0UDc2-33" value="Dirección" style="ellipse;whiteSpace=wrap;html=1;align=center;fontFamily=Architects Daughter;fontSource=https%3A%2F%2Ffonts.googleapis.com%2Fcss%3Ffamily%3DArchitects%2BDaughter;" vertex="1" parent="1">
          <mxGeometry x="125" y="380" width="80" height="30" as="geometry" />
        </mxCell>
        <mxCell id="B71xLVVzWM60uTZ0UDc2-34" value="Email" style="ellipse;whiteSpace=wrap;html=1;align=center;fontFamily=Architects Daughter;fontSource=https%3A%2F%2Ffonts.googleapis.com%2Fcss%3Ffamily%3DArchitects%2BDaughter;" vertex="1" parent="1">
          <mxGeometry x="125" y="425" width="80" height="30" as="geometry" />
        </mxCell>
        <mxCell id="B71xLVVzWM60uTZ0UDc2-35" value="Teléfono" style="ellipse;whiteSpace=wrap;html=1;align=center;fontFamily=Architects Daughter;fontSource=https%3A%2F%2Ffonts.googleapis.com%2Fcss%3Ffamily%3DArchitects%2BDaughter;" vertex="1" parent="1">
          <mxGeometry x="125" y="470" width="80" height="30" as="geometry" />
        </mxCell>
        <mxCell id="B71xLVVzWM60uTZ0UDc2-39" style="edgeStyle=orthogonalEdgeStyle;rounded=0;orthogonalLoop=1;jettySize=auto;html=1;exitX=0.5;exitY=1;exitDx=0;exitDy=0;entryX=0;entryY=0.5;entryDx=0;entryDy=0;fontFamily=Architects Daughter;fontSource=https%3A%2F%2Ffonts.googleapis.com%2Fcss%3Ffamily%3DArchitects%2BDaughter;fontSize=16;endArrow=open;sourcePerimeterSpacing=8;targetPerimeterSpacing=8;" edge="1" parent="1" source="B71xLVVzWM60uTZ0UDc2-2" target="B71xLVVzWM60uTZ0UDc2-33">
          <mxGeometry relative="1" as="geometry">
            <mxPoint x="134.45" y="255" as="sourcePoint" />
            <mxPoint x="169.45" y="280" as="targetPoint" />
          </mxGeometry>
        </mxCell>
        <mxCell id="B71xLVVzWM60uTZ0UDc2-40" style="edgeStyle=orthogonalEdgeStyle;rounded=0;orthogonalLoop=1;jettySize=auto;html=1;exitX=0.5;exitY=1;exitDx=0;exitDy=0;entryX=0;entryY=0.5;entryDx=0;entryDy=0;fontFamily=Architects Daughter;fontSource=https%3A%2F%2Ffonts.googleapis.com%2Fcss%3Ffamily%3DArchitects%2BDaughter;fontSize=16;endArrow=open;sourcePerimeterSpacing=8;targetPerimeterSpacing=8;" edge="1" parent="1" source="B71xLVVzWM60uTZ0UDc2-2" target="B71xLVVzWM60uTZ0UDc2-34">
          <mxGeometry relative="1" as="geometry">
            <mxPoint x="150" y="210" as="sourcePoint" />
            <mxPoint x="185" y="275" as="targetPoint" />
          </mxGeometry>
        </mxCell>
        <mxCell id="B71xLVVzWM60uTZ0UDc2-41" value="Calle" style="ellipse;whiteSpace=wrap;html=1;align=center;dashed=1;fontFamily=Architects Daughter;fontSource=https%3A%2F%2Ffonts.googleapis.com%2Fcss%3Ffamily%3DArchitects%2BDaughter;" vertex="1" parent="1">
          <mxGeometry x="255" y="370" width="60" height="20" as="geometry" />
        </mxCell>
        <mxCell id="B71xLVVzWM60uTZ0UDc2-42" value="Barrio" style="ellipse;whiteSpace=wrap;html=1;align=center;dashed=1;fontFamily=Architects Daughter;fontSource=https%3A%2F%2Ffonts.googleapis.com%2Fcss%3Ffamily%3DArchitects%2BDaughter;" vertex="1" parent="1">
          <mxGeometry x="255" y="397.5" width="60" height="20" as="geometry" />
        </mxCell>
        <mxCell id="B71xLVVzWM60uTZ0UDc2-43" value="Estado" style="ellipse;whiteSpace=wrap;html=1;align=center;dashed=1;fontFamily=Architects Daughter;fontSource=https%3A%2F%2Ffonts.googleapis.com%2Fcss%3Ffamily%3DArchitects%2BDaughter;" vertex="1" parent="1">
          <mxGeometry x="253.75" y="455" width="60" height="20" as="geometry" />
        </mxCell>
        <mxCell id="B71xLVVzWM60uTZ0UDc2-44" value="Ciudad" style="ellipse;whiteSpace=wrap;html=1;align=center;dashed=1;fontFamily=Architects Daughter;fontSource=https%3A%2F%2Ffonts.googleapis.com%2Fcss%3Ffamily%3DArchitects%2BDaughter;" vertex="1" parent="1">
          <mxGeometry x="252.5" y="425" width="62.5" height="22.5" as="geometry" />
        </mxCell>
        <mxCell id="B71xLVVzWM60uTZ0UDc2-45" style="edgeStyle=orthogonalEdgeStyle;rounded=0;orthogonalLoop=1;jettySize=auto;html=1;exitX=1;exitY=0.5;exitDx=0;exitDy=0;fontFamily=Architects Daughter;fontSource=https%3A%2F%2Ffonts.googleapis.com%2Fcss%3Ffamily%3DArchitects%2BDaughter;fontSize=16;endArrow=open;sourcePerimeterSpacing=8;targetPerimeterSpacing=8;entryX=0;entryY=0.5;entryDx=0;entryDy=0;" edge="1" parent="1" source="B71xLVVzWM60uTZ0UDc2-33" target="B71xLVVzWM60uTZ0UDc2-41">
          <mxGeometry relative="1" as="geometry">
            <mxPoint x="205" y="440" as="sourcePoint" />
            <mxPoint x="255" y="425" as="targetPoint" />
            <Array as="points">
              <mxPoint x="205" y="380" />
            </Array>
          </mxGeometry>
        </mxCell>
        <mxCell id="B71xLVVzWM60uTZ0UDc2-46" style="edgeStyle=orthogonalEdgeStyle;rounded=0;orthogonalLoop=1;jettySize=auto;html=1;exitX=1;exitY=0.5;exitDx=0;exitDy=0;fontFamily=Architects Daughter;fontSource=https%3A%2F%2Ffonts.googleapis.com%2Fcss%3Ffamily%3DArchitects%2BDaughter;fontSize=16;endArrow=open;sourcePerimeterSpacing=8;targetPerimeterSpacing=8;entryX=0;entryY=0.5;entryDx=0;entryDy=0;" edge="1" parent="1" source="B71xLVVzWM60uTZ0UDc2-33" target="B71xLVVzWM60uTZ0UDc2-42">
          <mxGeometry relative="1" as="geometry">
            <mxPoint x="215" y="405" as="sourcePoint" />
            <mxPoint x="265" y="390" as="targetPoint" />
            <Array as="points">
              <mxPoint x="230" y="395" />
              <mxPoint x="230" y="407" />
            </Array>
          </mxGeometry>
        </mxCell>
        <mxCell id="B71xLVVzWM60uTZ0UDc2-57" style="edgeStyle=orthogonalEdgeStyle;rounded=0;orthogonalLoop=1;jettySize=auto;html=1;exitX=0.5;exitY=1;exitDx=0;exitDy=0;exitPerimeter=0;entryX=0.5;entryY=0;entryDx=0;entryDy=0;fontFamily=Architects Daughter;fontSource=https%3A%2F%2Ffonts.googleapis.com%2Fcss%3Ffamily%3DArchitects%2BDaughter;fontSize=16;endArrow=open;sourcePerimeterSpacing=8;targetPerimeterSpacing=8;" edge="1" parent="1" source="B71xLVVzWM60uTZ0UDc2-49" target="B71xLVVzWM60uTZ0UDc2-51">
          <mxGeometry relative="1" as="geometry" />
        </mxCell>
        <mxCell id="B71xLVVzWM60uTZ0UDc2-58" style="edgeStyle=orthogonalEdgeStyle;rounded=0;orthogonalLoop=1;jettySize=auto;html=1;entryX=0.5;entryY=0;entryDx=0;entryDy=0;fontFamily=Architects Daughter;fontSource=https%3A%2F%2Ffonts.googleapis.com%2Fcss%3Ffamily%3DArchitects%2BDaughter;fontSize=16;endArrow=open;sourcePerimeterSpacing=8;targetPerimeterSpacing=8;" edge="1" parent="1" source="B71xLVVzWM60uTZ0UDc2-49" target="B71xLVVzWM60uTZ0UDc2-52">
          <mxGeometry relative="1" as="geometry" />
        </mxCell>
        <mxCell id="B71xLVVzWM60uTZ0UDc2-49" value="iD" style="strokeWidth=2;html=1;shape=mxgraph.flowchart.extract_or_measurement;whiteSpace=wrap;fontFamily=Architects Daughter;fontSource=https%3A%2F%2Ffonts.googleapis.com%2Fcss%3Ffamily%3DArchitects%2BDaughter;" vertex="1" parent="1">
          <mxGeometry x="300" y="90" width="95" height="60" as="geometry" />
        </mxCell>
        <mxCell id="B71xLVVzWM60uTZ0UDc2-50" style="edgeStyle=orthogonalEdgeStyle;rounded=0;orthogonalLoop=1;jettySize=auto;html=1;exitX=1;exitY=0.5;exitDx=0;exitDy=0;entryX=0.22;entryY=0.5;entryDx=0;entryDy=0;entryPerimeter=0;fontFamily=Architects Daughter;fontSource=https%3A%2F%2Ffonts.googleapis.com%2Fcss%3Ffamily%3DArchitects%2BDaughter;fontSize=16;endArrow=open;sourcePerimeterSpacing=8;targetPerimeterSpacing=8;" edge="1" parent="1" source="B71xLVVzWM60uTZ0UDc2-2" target="B71xLVVzWM60uTZ0UDc2-49">
          <mxGeometry relative="1" as="geometry" />
        </mxCell>
        <mxCell id="B71xLVVzWM60uTZ0UDc2-59" style="edgeStyle=orthogonalEdgeStyle;rounded=0;orthogonalLoop=1;jettySize=auto;html=1;exitX=0.5;exitY=1;exitDx=0;exitDy=0;entryX=0;entryY=0.5;entryDx=0;entryDy=0;fontFamily=Architects Daughter;fontSource=https%3A%2F%2Ffonts.googleapis.com%2Fcss%3Ffamily%3DArchitects%2BDaughter;fontSize=16;endArrow=open;sourcePerimeterSpacing=8;targetPerimeterSpacing=8;" edge="1" parent="1" source="B71xLVVzWM60uTZ0UDc2-51" target="B71xLVVzWM60uTZ0UDc2-54">
          <mxGeometry relative="1" as="geometry">
            <mxPoint x="257.5" y="225" as="sourcePoint" />
          </mxGeometry>
        </mxCell>
        <mxCell id="B71xLVVzWM60uTZ0UDc2-60" style="edgeStyle=orthogonalEdgeStyle;rounded=0;orthogonalLoop=1;jettySize=auto;html=1;exitX=0.5;exitY=1;exitDx=0;exitDy=0;entryX=0;entryY=0.5;entryDx=0;entryDy=0;fontFamily=Architects Daughter;fontSource=https%3A%2F%2Ffonts.googleapis.com%2Fcss%3Ffamily%3DArchitects%2BDaughter;fontSize=16;endArrow=open;sourcePerimeterSpacing=8;targetPerimeterSpacing=8;" edge="1" parent="1" source="B71xLVVzWM60uTZ0UDc2-51" target="B71xLVVzWM60uTZ0UDc2-53">
          <mxGeometry relative="1" as="geometry" />
        </mxCell>
        <mxCell id="B71xLVVzWM60uTZ0UDc2-51" value="PN" style="rounded=1;whiteSpace=wrap;html=1;fontFamily=Architects Daughter;fontSource=https%3A%2F%2Ffonts.googleapis.com%2Fcss%3Ffamily%3DArchitects%2BDaughter;" vertex="1" parent="1">
          <mxGeometry x="200" y="190" width="82.5" height="30" as="geometry" />
        </mxCell>
        <mxCell id="B71xLVVzWM60uTZ0UDc2-61" style="edgeStyle=orthogonalEdgeStyle;rounded=0;orthogonalLoop=1;jettySize=auto;html=1;exitX=0.5;exitY=1;exitDx=0;exitDy=0;entryX=0;entryY=0.5;entryDx=0;entryDy=0;fontFamily=Architects Daughter;fontSource=https%3A%2F%2Ffonts.googleapis.com%2Fcss%3Ffamily%3DArchitects%2BDaughter;fontSize=16;endArrow=open;sourcePerimeterSpacing=8;targetPerimeterSpacing=8;" edge="1" parent="1" source="B71xLVVzWM60uTZ0UDc2-52" target="B71xLVVzWM60uTZ0UDc2-55">
          <mxGeometry relative="1" as="geometry" />
        </mxCell>
        <mxCell id="B71xLVVzWM60uTZ0UDc2-62" style="edgeStyle=orthogonalEdgeStyle;rounded=0;orthogonalLoop=1;jettySize=auto;html=1;exitX=0.5;exitY=1;exitDx=0;exitDy=0;entryX=0;entryY=0.5;entryDx=0;entryDy=0;fontFamily=Architects Daughter;fontSource=https%3A%2F%2Ffonts.googleapis.com%2Fcss%3Ffamily%3DArchitects%2BDaughter;fontSize=16;endArrow=open;sourcePerimeterSpacing=8;targetPerimeterSpacing=8;" edge="1" parent="1" source="B71xLVVzWM60uTZ0UDc2-52" target="B71xLVVzWM60uTZ0UDc2-56">
          <mxGeometry relative="1" as="geometry">
            <Array as="points">
              <mxPoint x="429" y="250" />
            </Array>
          </mxGeometry>
        </mxCell>
        <mxCell id="B71xLVVzWM60uTZ0UDc2-52" value="PJ" style="rounded=1;whiteSpace=wrap;html=1;fontFamily=Architects Daughter;fontSource=https%3A%2F%2Ffonts.googleapis.com%2Fcss%3Ffamily%3DArchitects%2BDaughter;" vertex="1" parent="1">
          <mxGeometry x="389" y="190" width="81" height="30" as="geometry" />
        </mxCell>
        <mxCell id="B71xLVVzWM60uTZ0UDc2-53" value="DNI" style="ellipse;whiteSpace=wrap;html=1;align=center;fontFamily=Architects Daughter;fontSource=https%3A%2F%2Ffonts.googleapis.com%2Fcss%3Ffamily%3DArchitects%2BDaughter;" vertex="1" parent="1">
          <mxGeometry x="270" y="235" width="80" height="30" as="geometry" />
        </mxCell>
        <mxCell id="B71xLVVzWM60uTZ0UDc2-54" value="RUT" style="ellipse;whiteSpace=wrap;html=1;align=center;fontFamily=Architects Daughter;fontSource=https%3A%2F%2Ffonts.googleapis.com%2Fcss%3Ffamily%3DArchitects%2BDaughter;" vertex="1" parent="1">
          <mxGeometry x="270" y="280" width="80" height="30" as="geometry" />
        </mxCell>
        <mxCell id="B71xLVVzWM60uTZ0UDc2-55" value="RUES" style="ellipse;whiteSpace=wrap;html=1;align=center;fontFamily=Architects Daughter;fontSource=https%3A%2F%2Ffonts.googleapis.com%2Fcss%3Ffamily%3DArchitects%2BDaughter;" vertex="1" parent="1">
          <mxGeometry x="450" y="280" width="80" height="30" as="geometry" />
        </mxCell>
        <mxCell id="B71xLVVzWM60uTZ0UDc2-56" value="NIT" style="ellipse;whiteSpace=wrap;html=1;align=center;fontFamily=Architects Daughter;fontSource=https%3A%2F%2Ffonts.googleapis.com%2Fcss%3Ffamily%3DArchitects%2BDaughter;" vertex="1" parent="1">
          <mxGeometry x="450" y="235" width="80" height="30" as="geometry" />
        </mxCell>
        <mxCell id="B71xLVVzWM60uTZ0UDc2-63" value="Fecha" style="ellipse;whiteSpace=wrap;html=1;align=center;fontFamily=Architects Daughter;fontSource=https%3A%2F%2Ffonts.googleapis.com%2Fcss%3Ffamily%3DArchitects%2BDaughter;" vertex="1" parent="1">
          <mxGeometry x="760" y="25" width="80" height="30" as="geometry" />
        </mxCell>
        <mxCell id="B71xLVVzWM60uTZ0UDc2-64" value="Valor" style="ellipse;whiteSpace=wrap;html=1;align=center;fontFamily=Architects Daughter;fontSource=https%3A%2F%2Ffonts.googleapis.com%2Fcss%3Ffamily%3DArchitects%2BDaughter;" vertex="1" parent="1">
          <mxGeometry x="755" y="60" width="80" height="30" as="geometry" />
        </mxCell>
        <mxCell id="B71xLVVzWM60uTZ0UDc2-67" value="Cantidad" style="ellipse;whiteSpace=wrap;html=1;align=center;fontFamily=Architects Daughter;fontSource=https%3A%2F%2Ffonts.googleapis.com%2Fcss%3Ffamily%3DArchitects%2BDaughter;" vertex="1" parent="1">
          <mxGeometry x="967.5" y="780" width="100" height="40" as="geometry" />
        </mxCell>
        <mxCell id="B71xLVVzWM60uTZ0UDc2-70" value="Editorial" style="ellipse;whiteSpace=wrap;html=1;align=center;fontFamily=Architects Daughter;fontSource=https%3A%2F%2Ffonts.googleapis.com%2Fcss%3Ffamily%3DArchitects%2BDaughter;" vertex="1" parent="1">
          <mxGeometry x="770" y="435" width="100" height="30" as="geometry" />
        </mxCell>
        <mxCell id="B71xLVVzWM60uTZ0UDc2-71" value="ISBN" style="ellipse;whiteSpace=wrap;html=1;align=center;fontFamily=Architects Daughter;fontSource=https%3A%2F%2Ffonts.googleapis.com%2Fcss%3Ffamily%3DArchitects%2BDaughter;" vertex="1" parent="1">
          <mxGeometry x="767.5" y="475" width="105" height="30" as="geometry" />
        </mxCell>
        <mxCell id="B71xLVVzWM60uTZ0UDc2-72" value="Año_publicación" style="ellipse;whiteSpace=wrap;html=1;align=center;fontFamily=Architects Daughter;fontSource=https%3A%2F%2Ffonts.googleapis.com%2Fcss%3Ffamily%3DArchitects%2BDaughter;" vertex="1" parent="1">
          <mxGeometry x="762.5" y="512.5" width="110" height="30" as="geometry" />
        </mxCell>
        <mxCell id="B71xLVVzWM60uTZ0UDc2-73" value="Titulo" style="ellipse;whiteSpace=wrap;html=1;align=center;fontFamily=Architects Daughter;fontSource=https%3A%2F%2Ffonts.googleapis.com%2Fcss%3Ffamily%3DArchitects%2BDaughter;" vertex="1" parent="1">
          <mxGeometry x="767.5" y="555" width="110" height="30" as="geometry" />
        </mxCell>
        <mxCell id="B71xLVVzWM60uTZ0UDc2-74" value="Autor(a)" style="ellipse;whiteSpace=wrap;html=1;align=center;fontFamily=Architects Daughter;fontSource=https%3A%2F%2Ffonts.googleapis.com%2Fcss%3Ffamily%3DArchitects%2BDaughter;" vertex="1" parent="1">
          <mxGeometry x="770" y="595" width="110" height="30" as="geometry" />
        </mxCell>
        <mxCell id="B71xLVVzWM60uTZ0UDc2-75" value="Valor" style="ellipse;whiteSpace=wrap;html=1;align=center;fontFamily=Architects Daughter;fontSource=https%3A%2F%2Ffonts.googleapis.com%2Fcss%3Ffamily%3DArchitects%2BDaughter;" vertex="1" parent="1">
          <mxGeometry x="770" y="635" width="110" height="30" as="geometry" />
        </mxCell>
        <mxCell id="B71xLVVzWM60uTZ0UDc2-78" style="edgeStyle=orthogonalEdgeStyle;rounded=0;orthogonalLoop=1;jettySize=auto;html=1;entryX=0;entryY=0.333;entryDx=0;entryDy=0;fontFamily=Architects Daughter;fontSource=https%3A%2F%2Ffonts.googleapis.com%2Fcss%3Ffamily%3DArchitects%2BDaughter;fontSize=16;endArrow=open;sourcePerimeterSpacing=8;targetPerimeterSpacing=8;exitX=1;exitY=0.5;exitDx=0;exitDy=0;entryPerimeter=0;" edge="1" parent="1" target="B71xLVVzWM60uTZ0UDc2-70">
          <mxGeometry relative="1" as="geometry">
            <mxPoint x="719.38" y="650" as="sourcePoint" />
            <mxPoint x="789.38" y="665" as="targetPoint" />
            <Array as="points">
              <mxPoint x="739.38" y="650" />
              <mxPoint x="739.38" y="445" />
            </Array>
          </mxGeometry>
        </mxCell>
        <mxCell id="B71xLVVzWM60uTZ0UDc2-79" style="edgeStyle=orthogonalEdgeStyle;rounded=0;orthogonalLoop=1;jettySize=auto;html=1;entryX=0;entryY=0.5;entryDx=0;entryDy=0;fontFamily=Architects Daughter;fontSource=https%3A%2F%2Ffonts.googleapis.com%2Fcss%3Ffamily%3DArchitects%2BDaughter;fontSize=16;endArrow=open;sourcePerimeterSpacing=8;targetPerimeterSpacing=8;exitX=1;exitY=0.5;exitDx=0;exitDy=0;" edge="1" parent="1" source="B71xLVVzWM60uTZ0UDc2-5" target="B71xLVVzWM60uTZ0UDc2-71">
          <mxGeometry relative="1" as="geometry">
            <mxPoint x="712.5" y="660" as="sourcePoint" />
            <Array as="points">
              <mxPoint x="700" y="650" />
              <mxPoint x="740" y="650" />
              <mxPoint x="740" y="490" />
            </Array>
          </mxGeometry>
        </mxCell>
        <mxCell id="B71xLVVzWM60uTZ0UDc2-82" style="edgeStyle=orthogonalEdgeStyle;rounded=0;orthogonalLoop=1;jettySize=auto;html=1;fontFamily=Architects Daughter;fontSource=https%3A%2F%2Ffonts.googleapis.com%2Fcss%3Ffamily%3DArchitects%2BDaughter;fontSize=16;endArrow=open;sourcePerimeterSpacing=8;targetPerimeterSpacing=8;" edge="1" parent="1">
          <mxGeometry relative="1" as="geometry">
            <mxPoint x="712.5" y="650" as="sourcePoint" />
            <mxPoint x="772.5" y="610" as="targetPoint" />
            <Array as="points">
              <mxPoint x="740" y="650" />
              <mxPoint x="740" y="610" />
            </Array>
          </mxGeometry>
        </mxCell>
        <mxCell id="B71xLVVzWM60uTZ0UDc2-84" value="Teléfono" style="ellipse;whiteSpace=wrap;html=1;align=center;fontFamily=Architects Daughter;fontSource=https%3A%2F%2Ffonts.googleapis.com%2Fcss%3Ffamily%3DArchitects%2BDaughter;" vertex="1" parent="1">
          <mxGeometry x="145" y="620" width="110" height="30" as="geometry" />
        </mxCell>
        <mxCell id="B71xLVVzWM60uTZ0UDc2-85" value="Nombre_contacto" style="ellipse;whiteSpace=wrap;html=1;align=center;fontFamily=Architects Daughter;fontSource=https%3A%2F%2Ffonts.googleapis.com%2Fcss%3Ffamily%3DArchitects%2BDaughter;" vertex="1" parent="1">
          <mxGeometry x="140" y="660" width="115" height="30" as="geometry" />
        </mxCell>
        <mxCell id="B71xLVVzWM60uTZ0UDc2-86" value="Email" style="ellipse;whiteSpace=wrap;html=1;align=center;fontFamily=Architects Daughter;fontSource=https%3A%2F%2Ffonts.googleapis.com%2Fcss%3Ffamily%3DArchitects%2BDaughter;" vertex="1" parent="1">
          <mxGeometry x="140" y="700" width="115" height="30" as="geometry" />
        </mxCell>
        <mxCell id="B71xLVVzWM60uTZ0UDc2-88" value="Teléfono_1" style="ellipse;whiteSpace=wrap;html=1;align=center;dashed=1;fontFamily=Architects Daughter;fontSource=https%3A%2F%2Ffonts.googleapis.com%2Fcss%3Ffamily%3DArchitects%2BDaughter;" vertex="1" parent="1">
          <mxGeometry x="30" y="590" width="90" height="20" as="geometry" />
        </mxCell>
        <mxCell id="B71xLVVzWM60uTZ0UDc2-89" value="Teléfono_2" style="ellipse;whiteSpace=wrap;html=1;align=center;dashed=1;fontFamily=Architects Daughter;fontSource=https%3A%2F%2Ffonts.googleapis.com%2Fcss%3Ffamily%3DArchitects%2BDaughter;" vertex="1" parent="1">
          <mxGeometry x="30" y="625" width="90" height="20" as="geometry" />
        </mxCell>
        <mxCell id="B71xLVVzWM60uTZ0UDc2-93" style="rounded=0;orthogonalLoop=1;jettySize=auto;html=1;entryX=0.969;entryY=0.483;entryDx=0;entryDy=0;fontFamily=Architects Daughter;fontSource=https%3A%2F%2Ffonts.googleapis.com%2Fcss%3Ffamily%3DArchitects%2BDaughter;fontSize=16;endArrow=open;sourcePerimeterSpacing=8;targetPerimeterSpacing=8;entryPerimeter=0;exitX=0;exitY=0.5;exitDx=0;exitDy=0;" edge="1" parent="1" source="B71xLVVzWM60uTZ0UDc2-84" target="B71xLVVzWM60uTZ0UDc2-89">
          <mxGeometry relative="1" as="geometry">
            <mxPoint x="140" y="610" as="sourcePoint" />
            <mxPoint x="112.8" y="600" as="targetPoint" />
          </mxGeometry>
        </mxCell>
        <mxCell id="B71xLVVzWM60uTZ0UDc2-94" style="rounded=0;orthogonalLoop=1;jettySize=auto;html=1;entryX=0.982;entryY=0.468;entryDx=0;entryDy=0;entryPerimeter=0;fontFamily=Architects Daughter;fontSource=https%3A%2F%2Ffonts.googleapis.com%2Fcss%3Ffamily%3DArchitects%2BDaughter;fontSize=16;endArrow=open;sourcePerimeterSpacing=8;targetPerimeterSpacing=8;exitX=0;exitY=0.5;exitDx=0;exitDy=0;edgeStyle=orthogonalEdgeStyle;" edge="1" parent="1" source="B71xLVVzWM60uTZ0UDc2-84" target="B71xLVVzWM60uTZ0UDc2-88">
          <mxGeometry relative="1" as="geometry">
            <Array as="points">
              <mxPoint x="140" y="635" />
              <mxPoint x="140" y="599" />
            </Array>
          </mxGeometry>
        </mxCell>
        <mxCell id="B71xLVVzWM60uTZ0UDc2-95" value="Código Cliente" style="ellipse;whiteSpace=wrap;html=1;align=center;fontStyle=4;fontFamily=Architects Daughter;fontSource=https%3A%2F%2Ffonts.googleapis.com%2Fcss%3Ffamily%3DArchitects%2BDaughter;" vertex="1" parent="1">
          <mxGeometry x="125" y="290" width="95" height="40" as="geometry" />
        </mxCell>
        <mxCell id="B71xLVVzWM60uTZ0UDc2-96" value="Código Cliente" style="ellipse;whiteSpace=wrap;html=1;align=center;fontStyle=4;fontFamily=Architects Daughter;fontSource=https%3A%2F%2Ffonts.googleapis.com%2Fcss%3Ffamily%3DArchitects%2BDaughter;" vertex="1" parent="1">
          <mxGeometry x="750" y="140" width="90" height="40" as="geometry" />
        </mxCell>
        <mxCell id="B71xLVVzWM60uTZ0UDc2-97" value="Código Editorial" style="ellipse;whiteSpace=wrap;html=1;align=center;fontStyle=4;fontFamily=Architects Daughter;fontSource=https%3A%2F%2Ffonts.googleapis.com%2Fcss%3Ffamily%3DArchitects%2BDaughter;" vertex="1" parent="1">
          <mxGeometry x="970" y="730" width="100" height="40" as="geometry" />
        </mxCell>
        <mxCell id="B71xLVVzWM60uTZ0UDc2-98" value="Código Editorial" style="ellipse;whiteSpace=wrap;html=1;align=center;fontStyle=4;fontFamily=Architects Daughter;fontSource=https%3A%2F%2Ffonts.googleapis.com%2Fcss%3Ffamily%3DArchitects%2BDaughter;" vertex="1" parent="1">
          <mxGeometry x="145" y="750" width="107.5" height="40" as="geometry" />
        </mxCell>
        <mxCell id="B71xLVVzWM60uTZ0UDc2-99" value="Código Editorial" style="ellipse;whiteSpace=wrap;html=1;align=center;fontStyle=4;fontFamily=Architects Daughter;fontSource=https%3A%2F%2Ffonts.googleapis.com%2Fcss%3Ffamily%3DArchitects%2BDaughter;" vertex="1" parent="1">
          <mxGeometry x="772.5" y="380" width="100" height="40" as="geometry" />
        </mxCell>
        <mxCell id="B71xLVVzWM60uTZ0UDc2-106" value="Código pédido" style="ellipse;whiteSpace=wrap;html=1;align=center;fontStyle=4;fontFamily=Architects Daughter;fontSource=https%3A%2F%2Ffonts.googleapis.com%2Fcss%3Ffamily%3DArchitects%2BDaughter;" vertex="1" parent="1">
          <mxGeometry x="750" y="95" width="90" height="40" as="geometry" />
        </mxCell>
        <mxCell id="B71xLVVzWM60uTZ0UDc2-108" value="Cantidad" style="ellipse;whiteSpace=wrap;html=1;align=center;fontFamily=Architects Daughter;fontSource=https%3A%2F%2Ffonts.googleapis.com%2Fcss%3Ffamily%3DArchitects%2BDaughter;" vertex="1" parent="1">
          <mxGeometry x="977.5" y="260" width="80" height="30" as="geometry" />
        </mxCell>
        <mxCell id="B71xLVVzWM60uTZ0UDc2-109" value="Valor" style="ellipse;whiteSpace=wrap;html=1;align=center;fontFamily=Architects Daughter;fontSource=https%3A%2F%2Ffonts.googleapis.com%2Fcss%3Ffamily%3DArchitects%2BDaughter;" vertex="1" parent="1">
          <mxGeometry x="977.5" y="300" width="80" height="30" as="geometry" />
        </mxCell>
        <mxCell id="B71xLVVzWM60uTZ0UDc2-112" value="Código libro" style="ellipse;whiteSpace=wrap;html=1;align=center;fontStyle=4;fontFamily=Architects Daughter;fontSource=https%3A%2F%2Ffonts.googleapis.com%2Fcss%3Ffamily%3DArchitects%2BDaughter;" vertex="1" parent="1">
          <mxGeometry x="975" y="160" width="90" height="40" as="geometry" />
        </mxCell>
        <mxCell id="B71xLVVzWM60uTZ0UDc2-113" value="Código Librol" style="ellipse;whiteSpace=wrap;html=1;align=center;fontStyle=4;fontFamily=Architects Daughter;fontSource=https%3A%2F%2Ffonts.googleapis.com%2Fcss%3Ffamily%3DArchitects%2BDaughter;" vertex="1" parent="1">
          <mxGeometry x="762.5" y="330" width="107.5" height="40" as="geometry" />
        </mxCell>
        <mxCell id="B71xLVVzWM60uTZ0UDc2-116" value="Código Librol" style="ellipse;whiteSpace=wrap;html=1;align=center;fontStyle=4;fontFamily=Architects Daughter;fontSource=https%3A%2F%2Ffonts.googleapis.com%2Fcss%3Ffamily%3DArchitects%2BDaughter;" vertex="1" parent="1">
          <mxGeometry x="970" y="670" width="107.5" height="40" as="geometry" />
        </mxCell>
        <mxCell id="B71xLVVzWM60uTZ0UDc2-119" value="Código pédido" style="ellipse;whiteSpace=wrap;html=1;align=center;fontStyle=4;fontFamily=Architects Daughter;fontSource=https%3A%2F%2Ffonts.googleapis.com%2Fcss%3Ffamily%3DArchitects%2BDaughter;" vertex="1" parent="1">
          <mxGeometry x="977.5" y="210" width="90" height="40" as="geometry" />
        </mxCell>
      </root>
    </mxGraphModel>
  </diagram>
</mxfile>
